<?xml version="1.0" encoding="UTF-8" standalone="no"?>
<!-- Created with Inkscape (http://www.inkscape.org/) -->

<svg
   version="1.1"
   id="svg1"
   width="2048"
   height="1536"
   viewBox="0 0 2048 1536"
   sodipodi:docname="bahrain.svg"
   inkscape:version="1.4 (86a8ad7, 2024-10-11)"
   xmlns:inkscape="http://www.inkscape.org/namespaces/inkscape"
   xmlns:sodipodi="http://sodipodi.sourceforge.net/DTD/sodipodi-0.dtd"
   xmlns="http://www.w3.org/2000/svg"
   xmlns:svg="http://www.w3.org/2000/svg">
  <defs
     id="defs1" />
  <sodipodi:namedview
     id="namedview1"
     pagecolor="#ffffff"
     bordercolor="#000000"
     borderopacity="0.25"
     inkscape:showpageshadow="2"
     inkscape:pageopacity="0.0"
     inkscape:pagecheckerboard="0"
     inkscape:deskcolor="#d1d1d1"
     inkscape:zoom="0.35585517"
     inkscape:cx="996.19179"
     inkscape:cy="855.68519"
     inkscape:window-width="1920"
     inkscape:window-height="991"
     inkscape:window-x="-9"
     inkscape:window-y="-9"
     inkscape:window-maximized="1"
     inkscape:current-layer="g1" />
  <g
     inkscape:groupmode="layer"
     inkscape:label="Image"
     id="g1">
    <path
       style="fill:#000000"
       d="M -8.6430009e-7,762.37975 V -5.6202667 H 1024 2048 V 762.37975 1530.3798 H 1024 -8.6430009e-7 Z M 426.5,1351.8597 c 59.51298,-0.5881 245.49891,-2.2606 330.5,-2.9721 33.275,-0.2785 85.925,-0.7494 117,-1.0465 31.075,-0.2971 135.925,-1.183 233,-1.9688 236.0226,-1.9105 295.4966,-2.4161 353.5,-3.0052 26.95,-0.2737 108.4,-0.9432 181,-1.4877 72.6,-0.5446 135.3507,-1.219 139.4461,-1.4987 14.7605,-1.0081 20.7941,-3.4482 70.0539,-28.3318 25.575,-12.9192 48.3,-24.7194 50.5,-26.2225 21.5711,-14.739 30.0938,-43.5218 20.1192,-67.9466 -1.2354,-3.025 -33.4489,-55.45 -71.5856,-116.5 -267.8187,-428.72975 -417.9968,-668.82865 -457.8544,-732.00007 -29.2743,-46.39768 -38.2097,-58.55668 -54.7835,-74.54782 -22.0604,-21.28492 -38.1289,-29.97208 -61.1189,-33.0429 -22.7377,-3.03712 -46.0713,2.45039 -65.5611,15.41846 -18.1998,12.10979 -32.9206,27.20793 -46.6838,47.88065 -9.701,14.57114 -17.7374,30.82303 -32.0389,64.79161 -6.1364,14.57502 -16.5835,38.42502 -23.2157,53.00002 -14.2192,31.2483 -20.9869,47.8166 -26.6758,65.3058 -18.1988,55.9476 -15.9668,103.5668 6.9853,149.0325 9.0414,17.91 25.1559,41.1586 38.5301,55.5878 27.1491,29.2907 52.675,43.3449 121.6476,66.9776 43.6115,14.9429 59.9713,21.8302 79.5217,33.4779 15.2171,9.0659 27.913,19.1486 42.2276,33.536 15.8058,15.886 24.727,27.9685 32.9176,44.5824 10.8134,21.9339 14.3493,37.8475 14.4427,65 0.084,24.3578 -3.2745,35.2181 -12.526,40.5074 -5.2173,2.9829 9.8823,2.5795 -148.3481,3.96275 -64.9,0.5673 -138.475,1.2517 -163.5,1.5208 -25.025,0.2692 -70.7,0.7225 -101.5,1.0074 -30.8,0.2848 -74.675,0.737 -97.5,1.0049 -22.825,0.2678 -68.95,0.7145 -102.5,0.9928 -33.55,0.2782 -81.7,0.7483 -107,1.0446 l -46,0.5387 -98.70709,-8.95415 c -54.28891,-4.9248 -99.17641,-9.2442 -99.75,-9.5987 -3.08082,-1.904 0.59118,-8.3007 12.84041,-22.3683 12.36179,-14.1968 32.91372,-27.1014 48.61668,-30.5264 34.058,-7.4287 93.68491,-3.3546 254,17.3548 80.71269,10.4264 111.05154,13.5656 150.5,15.5726 7.425,0.3778 18.675,1.0316 25,1.4528 18.5548,1.2359 51.6237,0.5098 57.6613,-1.2661 13.3067,-3.9139 27.5897,-13.2785 36.0004,-23.6035 18.3485,-22.5247 16.2684,-51.5162 -5.3212,-74.1646 -7.8392,-8.2236 -13.3742,-12.3041 -100.3405,-73.974 -105.99143,-75.1611 -137.90794,-98.7232 -146.01564,-107.7952 -15.79428,-17.6727 -17.85049,-39.1366 -9.40823,-98.2086 6.9372,-48.5408 -1.89302,-84.0165 -27.46346,-110.3355 -17.22796,-17.7323 -35.7055,-27.9385 -71.64478,-39.5733 C 622.38832,426.52455 603.5194,412.60395 513.5,328.35642 476.49954,293.72834 441.43122,253.41814 416.53403,216.89632 401.1013,194.25796 386.07509,182.44255 363,174.80144 c -7.74911,-2.56605 -9.78092,-2.8147 -23,-2.8147 -13.09291,0 -15.27632,0.26115 -22.5,2.69119 -22.43199,7.54608 -39.58858,23.50233 -47.68232,44.34631 -3.21973,8.29185 -5.6794,21.89103 -17.24679,95.35549 -15.70743,99.75782 -30.29664,201.69102 -41.07695,287.00002 -13.23496,104.7336 -29.95319,220.4131 -48.48714,335.5 -3.80867,23.65 -7.44294,49.75 -8.07617,58 -2.09786,27.33225 0.60648,57.51845 7.67141,85.62945 4.94278,19.6671 7.33287,26.1279 25.57724,69.1391 8.81128,20.7727 15.80354,38.3227 15.53834,39 -0.2652,0.6773 -14.98939,17.6565 -32.72042,37.7315 -17.73104,20.075 -34.05377,38.75 -36.27274,41.5 -22.83305,28.2974 -10.3893,71.043 24.25245,83.3099 l 6.52309,2.3098 105.5,-0.5728 c 58.025,-0.3151 128,-0.7952 155.5,-1.067 z m -260,-1.519 c -15.4449,-3.1661 -28.38259,-13.1686 -35.24967,-27.2526 -4.01408,-8.2326 -5.20144,-13.3022 -5.20144,-22.2083 0,-14.7703 3.95587,-23.4044 18.09766,-39.5 5.55722,-6.325 12.86016,-14.6419 16.22874,-18.4821 6.27074,-7.1486 23.97435,-27.1649 37.8209,-42.7615 4.26938,-4.809 8.0173,-9.759 8.32873,-11 0.39154,-1.5602 -4.42679,-13.9803 -15.6173,-40.2564 -21.31215,-50.0423 -26.79691,-67.0785 -31.6136,-98.1948 -2.6497,-17.1173 -2.38491,-59.54815 0.48243,-77.30525 1.19895,-7.425 4.2207,-26.036 6.71501,-41.3578 16.10333,-98.9183 31.89979,-208.3455 47.51358,-329.1422 19.05991,-147.4577 50.96824,-360.31915 56.66292,-378.00002 6.04207,-18.75948 20.20116,-35.03155 37.83204,-43.47776 10.89802,-5.22078 19.01113,-7.02224 31.62555,-7.02224 16.70599,0 29.95436,4.23393 45.37445,14.50082 10.84356,7.21977 18.79668,15.54781 29.60365,30.99918 19.11359,27.32785 33.85371,45.63728 57.96405,72 17.06645,18.66078 29.34933,30.65598 62.97498,61.5 44.49014,40.80978 61.30852,54.96212 79.90258,67.23652 14.36711,9.484 26.07553,14.8505 50.05474,22.9421 11.275,3.8047 25.18638,9.1536 30.91417,11.8865 31.52785,15.0429 51.51359,36.1275 61.17799,64.5417 6.90993,20.3158 7.6552,40.3492 2.86053,76.8932 -7.61425,58.0343 -4.59903,78.2408 14.47437,97 10.7179,10.5413 59.70388,46.1747 192.57294,140.0814 51.6932,36.5348 59.9797,44.6076 65.5331,63.8437 2.3273,8.061 2.1329,19.3763 -0.4763,27.7303 -5.5855,17.8831 -25.8866,35.4854 -46.6572,40.4547 -11.3366,2.7122 -45.6961,1.8778 -109.8996,-2.669 -26.05077,-1.8448 -73.60542,-7.4171 -153,-17.9278 -52.93354,-7.0077 -110.82786,-13.0303 -145.12768,-15.0972 -25.0687,-1.5107 -63.06676,-0.7437 -74.14445,1.4965 -21.01343,4.2495 -41.61828,17.8065 -57.88789,38.0874 -9.75438,12.1594 -11.50849,17.0781 -7.08998,19.8814 1.62363,1.03 30.36718,3.9359 103.25,10.43815 l 101,9.0106 120,-1.3412 c 117.79044,-1.3166 243.7518,-2.6021 441.5,-4.5058 54.725,-0.5268 119.993,-0.9635 145.0399,-0.9705 48.6579,-0.014 53.5212,-0.4277 60.1104,-5.11965 3.401,-2.4218 7.3418,-9.7355 8.9273,-16.5684 3.0456,-13.1255 2.7514,-39.7135 -0.6288,-56.8246 -9.4973,-48.0763 -47.9382,-93.668 -102.3789,-121.4236 -14.7595,-7.5248 -25.8579,-11.8722 -66.0699,-25.8807 -17.325,-6.0354 -35.775,-12.6525 -41,-14.7047 -42.1439,-16.5525 -68.8856,-36.2737 -93.5511,-68.991 -32.4176,-43.0001 -44.9757,-80.8621 -42.3025,-127.54 1.8998,-33.1727 12.0476,-65.0195 40.1363,-125.96 4.6899,-10.175 14.0192,-31.5428 20.7318,-47.48405 13.0673,-31.03254 21.2487,-48.13841 29.004,-60.6426 21.7089,-35.00186 53.0844,-60.3076 82.1893,-66.28925 9.6457,-1.98238 27.4819,-2.04787 36.4768,-0.13395 21.0709,4.48344 34.5296,12.67507 55.8668,34.00344 17.928,17.92054 23.7459,26.17857 66.9609,95.04639 10.3539,16.50002 23.7666,37.87502 29.806,47.50002 77.6209,123.7039 465.8758,745.03705 477.3255,763.87475 8.7067,14.3248 10.5724,19.5643 11.1238,31.2383 0.7675,16.2495 -4.8035,29.9619 -16.7521,41.2336 -6.3155,5.9577 -9.7999,7.8954 -54.6306,30.3797 -47.0954,23.6201 -52.9069,26.2335 -62.8849,28.2792 -3.2162,0.6593 -290.9469,3.5072 -806.5,7.9823 -440.825,3.8265 -803.75,6.9204 -806.5,6.8752 -2.75,-0.045 -6.8,-0.4511 -9,-0.9021 z m 805.4428,-62.4373 c 419.9565,-3.562 773.5964,-6.5995 785.8665,-6.75 l 22.3093,-0.2736 40.5367,-20.5 c 41.5484,-21.0116 43.5869,-22.3204 41.8431,-26.8647 -0.6347,-1.6541 -18.5453,-30.3591 -256.5298,-411.13535 C 1358.3834,426.24235 1332.43,384.8749 1318.8475,364.7335 c -13.186,-19.55351 -31.535,-38.1199 -42.3931,-42.89527 -2.6874,-1.18191 -6.6778,-1.75898 -12.4544,-1.80109 -7.0992,-0.0518 -9.4064,0.35944 -14,2.49509 -12.2271,5.68464 -25.4006,18.1747 -36.2186,34.33977 -7.5397,11.26632 -14.7556,26.15496 -28.1141,58.00775 -5.7665,13.75 -16.3098,37.825 -23.4297,53.5 -7.1198,15.675 -15.2326,34.35 -18.0285,41.5 -21.2336,54.3021 -19.8205,92.7704 4.8599,132.3003 9.7297,15.5836 15.3193,22.7297 26.3633,33.7038 20.0704,19.9436 34.5698,27.1243 101.0036,50.0213 13.7147,4.7269 30.1397,10.6433 36.5,13.1476 77.7928,30.6296 136.9784,89.8778 156.9547,157.1206 5.8325,19.6327 7.5266,33.0402 7.5441,59.7064 0.015,22.4854 -0.1505,24.7001 -2.6192,35.0929 -4.9103,20.67065 -12.2342,33.94895 -25.7258,46.64085 -11.178,10.5155 -24.625,17.0926 -40.5333,19.8254 -3.4149,0.5867 -29.3902,1.2396 -59.5564,1.4971 -29.425,0.2512 -107.725,0.9198 -174,1.4858 -66.275,0.566 -183.05,1.6749 -259.5,2.4643 -76.45,0.7894 -170.95,1.7217 -210,2.0717 l -71,0.6364 -50,-4.5881 c -27.5,-2.5234 -79.97569,-7.2996 -116.61264,-10.6137 -51.30754,-4.6413 -67.90402,-6.4701 -72.23308,-7.9595 -14.74035,-5.0714 -24.89931,-17.3115 -27.69563,-33.3691 -1.68492,-9.67565 -0.25835,-16.03005 6.79177,-30.25285 24.92337,-50.28 59.8956,-83.9961 101.59827,-97.9493 38.80405,-12.9832 101.77118,-11.1624 244.15131,7.0603 91.47108,11.707 114.40718,14.5553 132.43054,16.4459 22.24044,2.3329 82.35474,6.0087 98.29636,6.0106 10.3309,10e-4 10.7873,-0.091 12.3603,-2.4914 3.3283,-5.0796 2.4611,-5.8804 -35.83418,-33.0899 -184.33971,-130.9772 -189.75469,-135.0757 -204.67685,-154.9174 -7.3633,-9.7908 -15.54571,-26.9412 -18.6068,-39 -5.74864,-22.6461 -5.5931,-45.8813 0.62589,-93.5 2.31743,-17.7445 2.93665,-25.7111 2.5283,-32.528 -1.77019,-29.551 -16.33411,-43.7236 -59.12356,-57.5351 -55.16467,-17.8059 -78.07493,-34.2206 -176,-126.10017 -38.40249,-36.03167 -71.55328,-73.7125 -99.27134,-112.83675 -13.07736,-18.45879 -15.4362,-21.03649 -22.67038,-24.77385 -7.31197,-3.77754 -14.92142,-3.71202 -20.01408,0.17234 -2.06602,1.57584 -4.33905,4.26834 -5.05118,5.98333 -3.92437,9.45103 -36.31785,224.5146 -51.98267,345.1182 -21.14106,162.7653 -36.80668,271.1575 -53.759,371.9649 l -5.21905,31.0351 0.0322,26.50005 c 0.0302,24.8574 0.20031,27.313 2.74392,39.6167 4.21593,20.3927 8.59678,32.7436 26.78746,75.5214 9.29437,21.857 17.56838,42.5799 18.38669,46.0509 2.98205,12.649 1.19492,26.7597 -4.96242,39.1819 -3.47733,7.0154 -11.88274,17.1307 -47.70708,57.4119 -12.38562,13.9264 -13.67113,16.5066 -10.15811,20.3885 1.00923,1.1152 3.03542,1.8287 5.19281,1.8287 1.9458,0 347.13856,-2.9144 767.09503,-6.4764 z m -770.1928,2.9293 c -0.4125,-0.4324 -0.75,-1.5466 -0.75,-2.476 0,-0.9293 12.3984,-15.7792 27.552,-32.9998 24.02653,-27.3037 28.04407,-32.3444 31.39767,-39.3936 2.11512,-4.4459 4.41104,-10.5478 5.10203,-13.5598 1.52728,-6.6572 1.51497,-21.7002 -0.0233,-28.5237 -0.61997,-2.75 -8.58861,-22.55 -17.70808,-44 -17.53549,-41.2454 -20.93554,-50.2325 -24.78015,-65.5 -4.58916,-18.2242 -5.94812,-30.0868 -5.89971,-51.5 0.0445,-19.66595 0.14887,-20.63485 6.24945,-58.00005 16.26029,-99.592 31.52746,-203.2722 44.10209,-299.5 19.15857,-146.6115 27.14051,-203.8512 40.57919,-291.00002 11.86792,-76.96247 19.27564,-120.80304 20.96356,-124.06712 2.02309,-3.91221 7.03055,-6.92442 11.51895,-6.92914 5.31135,-0.006 13.30473,4.47074 18.43753,10.32508 2.4936,2.84415 9.31139,11.92118 15.15064,20.17118 34.26123,48.4061 69.01394,85.33854 143.91512,152.94172 56.91031,51.3652 82.50542,68.0083 125.58812,81.6633 27.05257,8.5742 40.14451,15.215 49.4787,25.0978 11.96912,12.6726 14.68161,27.8376 10.43823,58.3581 -4.982,35.833 -6.51628,68.8712 -3.9821,85.7475 4.09706,27.2844 14.70078,48.5016 33.87818,67.7875 12.48968,12.5603 40.48331,33.2749 150.54192,111.3971 74.15626,52.6379 78.49996,55.8221 78.49996,57.5457 0,3.7187 -2.4127,4.2631 -15.7646,3.5571 -73.07285,-3.864 -85.54075,-4.9252 -142.23536,-12.107 -18.975,-2.4037 -55.875,-7.0824 -82,-10.3971 -92.60633,-11.7497 -119.2462,-14.1313 -165.5,-14.7957 -49.65464,-0.7132 -66.22709,1.2702 -89.86993,10.7558 -38.16452,15.3116 -71.5022,49.1837 -94.43453,95.9482 -6.44388,13.1406 -6.63078,13.7424 -7.02078,22.6055 -0.61607,14.00045 2.94582,24.33285 11.56473,33.54715 5.33478,5.7033 12.56206,10.0594 20.26051,12.2117 3.025,0.8457 26.2,3.3792 51.5,5.6301 25.3,2.2509 78.175,7.0223 117.5,10.603 l 71.5,6.5105 40,-0.5518 c 22,-0.3036 71.05,-0.7932 109,-1.0882 37.95,-0.295 101.175,-0.954 140.5,-1.4645 39.32496,-0.5105 103.67496,-1.1804 142.99996,-1.4885 39.325,-0.3081 85,-0.7619 101.5,-1.0084 16.5,-0.2465 74.55,-0.7138 129,-1.0384 59.7368,-0.3562 101.9659,-1.0035 106.4783,-1.6322 21.4269,-2.9855 39.8624,-13.1232 52.3007,-28.7603 9.8338,-12.3628 15.5239,-25.7686 19.3447,-45.57565 2.3505,-12.1849 2.3716,-44.1777 0.04,-61.195 -9.8668,-72.0263 -60.0473,-136.7201 -135.93,-175.244 -17.8858,-9.0802 -30.7543,-14.1838 -70.7341,-28.0528 -47.5329,-16.4893 -60.792,-22.127 -76.5611,-32.5537 -25.9138,-17.1345 -51.6823,-53.1601 -60.0512,-83.9545 -2.4619,-9.0586 -2.7213,-11.6475 -2.7553,-27.5 -0.031,-14.4999 0.3481,-19.2806 2.2118,-27.8863 4.5889,-21.1902 13.2839,-43.8078 35.4115,-92.1137 4.6609,-10.175 12.4008,-27.95 17.1997,-39.5 11.516,-27.71696 22.2411,-49.82334 29.3052,-60.40364 10.2376,-15.33337 26.5113,-29.6343 38.4699,-33.80642 6.4625,-2.25463 16.1926,-1.27303 22.7481,2.2949 7.2664,3.95489 22.6464,18.7705 30.9081,29.77396 12.019,16.00775 15.9211,22.20839 298.0663,473.6412 255.9113,409.45855 253.1688,405.04095 252.59,406.86455 -0.3184,1.0031 -16.8334,9.7525 -41.2868,21.8732 l -40.7562,20.2015 -72.5,0.5407 c -39.875,0.2974 -92.075,0.7606 -116,1.0293 -58.6276,0.6584 -133.0683,1.3573 -211.5,1.9856 -35.75,0.2863 -89.075,0.7479 -118.5,1.0256 -29.425,0.2777 -109.075,0.9377 -177,1.4666 -124.6085,0.9705 -200.51293,1.6036 -303.99996,2.5359 -31.075,0.2799 -115.9,0.9477 -188.5,1.4839 -72.6,0.5362 -139.425,1.2003 -148.5,1.4756 -30.40576,0.9226 -238.49056,1.7667 -239.25,0.9705 z"
       id="path1" />
  </g>
</svg>
