<?xml version="1.0" encoding="UTF-8" standalone="no"?>
<!-- Created with Inkscape (http://www.inkscape.org/) -->

<svg
   version="1.1"
   id="svg1"
   width="235"
   height="215"
   viewBox="0 0 235 215"
   sodipodi:docname="nurburgring.svg"
   inkscape:version="1.4 (86a8ad7, 2024-10-11)"
   xmlns:inkscape="http://www.inkscape.org/namespaces/inkscape"
   xmlns:sodipodi="http://sodipodi.sourceforge.net/DTD/sodipodi-0.dtd"
   xmlns="http://www.w3.org/2000/svg"
   xmlns:svg="http://www.w3.org/2000/svg">
  <defs
     id="defs1" />
  <sodipodi:namedview
     id="namedview1"
     pagecolor="#ffffff"
     bordercolor="#000000"
     borderopacity="0.25"
     inkscape:showpageshadow="2"
     inkscape:pageopacity="0.0"
     inkscape:pagecheckerboard="0"
     inkscape:deskcolor="#d1d1d1"
     inkscape:zoom="3.5953488"
     inkscape:cx="117.51294"
     inkscape:cy="107.5"
     inkscape:window-width="1920"
     inkscape:window-height="991"
     inkscape:window-x="-9"
     inkscape:window-y="-9"
     inkscape:window-maximized="1"
     inkscape:current-layer="g1" />
  <g
     inkscape:groupmode="layer"
     inkscape:label="Image"
     id="g1">
    <path
       style="fill:#0f0f0f;stroke:none"
       d="M 209,6.4243774 C 203.26001,7.175827 196.34813,5.9210358 191.00386,8.4336395 185.21512,11.155228 183.86969,16.534485 176.99924,17.570984 156.21683,20.706268 130.87186,15.882645 111,22.969131 101.93626,26.20134 94.373581,34.291794 87,40.199844 79.444916,46.253326 61.940838,55.847107 60.232254,66 57.774952,80.602005 79.472733,80.421204 80.620369,92.00386 81.485588,100.73616 68.365547,116.39624 64.230713,124 c -3.924126,7.21628 -10.083077,14.87151 -11.840279,23 -1.499099,6.93457 1.517716,14.75316 -3.043213,20.90973 -8.634601,11.65539 -25.787441,15.64886 -36.118826,25.60802 -4.5918021,4.42636 -3.3572898,13.32873 3.787037,14.20988 C 27.173,208.98041 38.9128,189.94754 47,184.69907 c 9.249012,-6.00246 19.433723,-10.10105 30,-13.12037 4.678894,-1.337 11.44001,-2.43548 13.392746,-7.62191 C 94.590309,152.80817 76.067276,150.7233 75.557098,140.99924 75.20977,134.37909 82.556076,125.56408 85.719139,120 92.691231,107.73553 99.532539,92.989624 102.19598,79 103.58157,71.72226 87.89151,67.864899 91.581787,63.698303 c 4.635956,-5.234329 22.909913,-4.33406 25.853393,2.406632 3.48193,7.973755 -16.65754,19.233383 -9.81635,26.287811 C 113.30256,98.253639 134.91313,84.43335 140,80.971451 166.85468,62.695374 197.09811,46.057739 221.89507,25.101074 234.23366,14.67334 220.44838,4.9256134 209,6.4243774 M 111,90 c 2.23875,-7.608032 11.85976,-13.960617 11.48225,-22 -0.63205,-13.460144 -23.809063,-13.84996 -32.438267,-8.721451 -5.758712,3.422516 -5.50402,9.317368 -0.0247,12.878098 C 92.710732,73.905685 96.075584,74.703369 99,76 c -3.763908,11.567513 -7.238426,24.27601 -13.029327,35 -4.586678,8.49393 -13.053307,18.34309 -14.614968,28 -1.25843,7.78177 5.303643,12.01855 10.625008,16.15509 2.479767,1.92764 6.13826,5.03967 3.396606,8.33565 -4.593345,5.52206 -18.79554,6.56337 -25.377319,9.38194 -13.614334,5.83022 -23.828751,14.66628 -34.039352,25.1227 -1.919434,1.96563 -9.381695,9.10727 -10.98997,2.79011 -1.093426,-4.29487 5.23696,-7.06271 8.029322,-8.83873 9.116756,-5.79854 20.150467,-11.57135 27.895061,-19.13118 C 59.47921,164.43623 53.649376,155.62903 57.132717,146 63.663025,127.9482 78.755127,113.13998 84.990738,95 89.766998,81.105392 55.629211,76.408737 66.317902,63.089508 73.93174,53.601868 86.514458,45.990784 96,38.399689 c 5.17651,-4.14267 10.50991,-9.641922 17,-11.599549 21.03394,-6.344543 45.48558,-1.226135 66.99924,-5.129608 6.28349,-1.140091 7.85258,-6.700622 13.04089,-9.35263 C 197.7693,9.9005737 203.89468,11.307877 209,10.830246 213.29874,10.42807 219.2834,9.1474457 221.58797,14.132721 225.39951,22.377899 203.41597,32.722672 198,36.333328 169.75247,55.165009 142.82825,77.655136 111,90 Z"
       id="path1" />
  </g>
</svg>
