<?xml version="1.0" encoding="UTF-8" standalone="no"?>
<!-- Created with Inkscape (http://www.inkscape.org/) -->

<svg
   version="1.1"
   id="svg1"
   width="1000"
   height="433"
   viewBox="0 0 1000 433"
   sodipodi:docname="portimao.svg"
   inkscape:version="1.4 (86a8ad7, 2024-10-11)"
   xmlns:inkscape="http://www.inkscape.org/namespaces/inkscape"
   xmlns:sodipodi="http://sodipodi.sourceforge.net/DTD/sodipodi-0.dtd"
   xmlns="http://www.w3.org/2000/svg"
   xmlns:svg="http://www.w3.org/2000/svg">
  <defs
     id="defs1" />
  <sodipodi:namedview
     id="namedview1"
     pagecolor="#ffffff"
     bordercolor="#000000"
     borderopacity="0.25"
     inkscape:showpageshadow="2"
     inkscape:pageopacity="0.0"
     inkscape:pagecheckerboard="0"
     inkscape:deskcolor="#d1d1d1"
     showgrid="false"
     inkscape:zoom="0.825"
     inkscape:cx="500"
     inkscape:cy="216.36364"
     inkscape:window-width="1920"
     inkscape:window-height="991"
     inkscape:window-x="-9"
     inkscape:window-y="-9"
     inkscape:window-maximized="1"
     inkscape:current-layer="g1" />
  <g
     inkscape:groupmode="layer"
     inkscape:label="Image"
     id="g1">
    <path
       style="fill:#000000"
       d="M 498.78788,434.21212 H -1.2121214 v -216.5 V 1.2121212 h 500.0000014 500 v 216.4999988 216.5 z m 359,-7.64189 22.5,-0.16768 11.72704,-3.02072 11.72705,-3.02073 9.67059,-4.581 9.6706,-4.581 8.55653,-5.74349 8.55653,-5.74349 5.78567,-5.34831 5.78568,-5.34831 7.84061,-10.65169 7.84061,-10.65169 3.64776,-5.73537 3.64777,-5.73536 3.16449,-6.26464 3.1645,-6.26463 2.31176,-6.7913 2.31176,-6.79131 2.03049,-9.37186 2.03049,-9.37186 1.11794,-12.25079 1.11794,-12.25078 -1.10861,-10.58785 -1.10861,-10.58785 -2.46673,-9.21734 -2.46672,-9.21734 -5.21608,-11.78086 -5.21609,-11.78086 -40.6592,-61 -40.65921,-61 -7.08989,-7.577419 -7.0899,-7.57742 -5.81238,-3.08832 -5.81239,-3.08832 -7.70784,-1.58426 -7.70784,-1.58426 -9.29216,0.0174 -9.29216,0.0174 -6.81457,1.44392 -6.81456,1.44392 -7.55855,3.63551 -7.55854,3.63551 -4.45468,4.45469 -4.45469,4.45469 -2.56468,5.698519 -2.56469,5.69852 -0.4251,7.5 -0.4251,7.5 1.86585,7 1.86585,7 28.02003,40.5 28.02004,40.5 7.3579,10.97929 7.3579,10.97929 0.77244,4.02071 0.77244,4.02071 -1.02793,6.11581 -1.02793,6.11581 -1.9392,3.18876 -1.93921,3.18876 -5.23151,2.43566 -5.23151,2.43566 -4.40276,0.01 -4.40275,0.01 -11.41603,-4.56742 -11.41603,-4.56742 -36.16194,-16.03925 -36.16194,-16.03924 -9.51927,-4.77875 -9.51928,-4.77874 -5.1072,-3.86459 -5.1072,-3.86459 -4.12263,-4.78752 -4.12264,-4.78752 -2.43998,-4.21248 -2.43999,-4.21248 -2.77522,-8 -2.77523,-8 -0.36926,-31.25 -0.36926,-31.25 h -3.49841 -3.49841 l 0.36575,32.25 0.36575,32.25 2.78726,8 2.78726,8 3.0277,5.70997 3.02769,5.70997 5.41817,5.98728 5.41818,5.98727 6.87015,4.56727 6.87015,4.56727 9.84369,4.58629 9.84368,4.58629 26.5,11.77271 26.5,11.77272 16.5,7.02808 16.5,7.02809 4,1.09282 4,1.09282 5.07186,0.006 5.07186,0.006 4.48415,-1.5279 4.48414,-1.5279 3.72302,-3.06883 3.72301,-3.06882 1.84232,-3.65328 1.84232,-3.65327 1.13085,-6.59447 1.13084,-6.59447 -0.64422,-4.90553 -0.64423,-4.90553 -1.76308,-3.5 -1.76308,-3.5 -28.24205,-41 -28.24205,-41 -6.16343,-9.00141 -6.16343,-9.0014 -1.32774,-6.2566 -1.32775,-6.2566 0.582,-4.91405 0.582,-4.91404 2.47866,-4.8914 2.47866,-4.891409 3.91499,-3.53696 3.91499,-3.53696 5.58893,-2.64398 5.58893,-2.64399 6.32377,-1.49082 6.32376,-1.49082 8.5,0.003 8.5,0.003 6.86357,1.45417 6.86356,1.45417 4.40421,2.58104 4.40421,2.58104 6.50863,6.69742 6.50862,6.697429 40.67648,61 40.67649,61 5.26098,12.16459 5.26098,12.16459 2.05352,7.83541 2.05352,7.83541 1.03618,9 1.03617,9 -0.65341,8.5 -0.65341,8.5 -1.85577,11 -1.85578,11 -2.12407,6.5 -2.12407,6.5 -3.36401,7.05483 -3.36401,7.05483 -5.90456,8.94517 -5.90455,8.94517 -7.08932,9.12841 -7.08932,9.1284 -8.07579,6.08529 -8.07579,6.08529 -6.76446,3.95066 -6.76446,3.95066 -5.80999,2.56945 -5.80998,2.56946 -6.66219,1.95649 -6.66218,1.95649 -8,1.46156 -8,1.46156 -30,-0.3527 -30,-0.35271 -37,-1.06726 -37,-1.06726 -202,-1.95009 -202,-1.95009 -24.25,-0.45567 -24.25,-0.45567 v 3.32317 3.32317 l 12.25,0.56518 12.25,0.56519 216,2.05032 216,2.05033 35,1.02726 35,1.02727 11.5,0.22081 11.5,0.22081 z m -614.25,-7.52223 39.25,0.16412 v -3.5 -3.5 l -24.25,-0.0175 -24.25,-0.0175 -79.71788,-0.98154 -79.717882,-0.98155 -7.175798,-1.01771 -7.175797,-1.01771 -3.738437,-2.10112 -3.738437,-2.10112 -2.070009,-3.68309 -2.070008,-3.68308 -17.783668,-51.44905 -17.783668,-51.44903 0.141566,-6 0.141566,-6 2.071391,-5.22909 2.071391,-5.22909 24.080661,-41.27091 24.08066,-41.27091 4.181298,-4.2815 4.1813,-4.2815 3.796205,-1.13737 3.796206,-1.13738 2.714669,2.01082 2.71467,2.01083 2.042928,2.99866 2.042928,2.99866 8.846165,33.90939 8.84617,33.90939 3.33037,6.10789 3.33037,6.10788 4.54354,5.05351 4.54354,5.05351 5.237,3.44736 5.23699,3.44737 5,1.60388 5,1.60388 11.5,1.47758 11.5,1.47759 27.5,1.08856 27.5,1.08857 77.5,3.52657 77.5,3.52658 65,-0.30537 65,-0.30536 7.72998,-3.6912 7.72999,-3.69121 4.91246,-4.59503 4.91246,-4.59503 2.33736,-5.21377 2.33737,-5.21376 0.006,-8.5 0.006,-8.5 -2.87784,-5.5 -2.87785,-5.5 -2.41222,-3.16532 -2.41223,-3.16531 -6.6959,-2.68496 -6.69558,-2.68496 -39.5,-15.26732 -39.5,-15.26732 -6.58191,-1.1324 -6.58192,-1.13241 h -9.06213 -9.06213 l -10.35596,1.02629 -10.35595,1.0263 -19.5,3.41022 -19.5,3.41023 -7.6992,1.19248 -7.6992,1.19249 0.59284,3.12099 0.59284,3.121 0.28148,0.34178 0.28147,0.34178 13.32489,-2.10158 13.32488,-2.10158 17,-2.96116 17,-2.96116 13.5,-0.65812 13.5,-0.65812 7.1521,1.12296 7.15211,1.12296 44.34789,17.08706 44.3479,17.08706 3.23323,3.56627 3.23323,3.56627 2.01677,5.3903 2.01677,5.39031 v 2.78098 2.78099 l -1.55644,5.24109 -1.55643,5.24108 -3.45931,3.82905 -3.45931,3.82904 -7.73426,3.86137 -7.73425,3.86137 -62.65172,0.31671 -62.65171,0.31672 -79.84829,-3.59268 -79.84828,-3.59268 -31,-1.47024 -31,-1.47024 -8.33296,-1.52101 -8.33295,-1.52102 -3.16705,-1.60068 -3.16704,-1.60069 -5.25832,-4.01012 -5.25831,-4.01012 -4.65625,-7.00399 -4.65624,-7.004 -9.33865,-35.53109 -9.338651,-35.53109 -1.785605,-3.08689 -1.785606,-3.08689 -4.824199,-3.25 -4.824199,-3.25 h -3.020966 -3.020966 l -4.017902,1.20379 -4.017903,1.2038 -4.844161,4.5462 -4.84416,4.54621 -25.024325,43 -25.024326,43 -2.1127504,5.5 -2.11275,5.5 -0.09784,8 -0.09784,8 17.7875414,51.47435 17.78754,51.47435 2.693422,4.99195 2.693421,4.99194 4.055603,2.83654 4.055603,2.83653 8.732466,1.50695 8.732467,1.50696 65.711926,0.77609 65.71193,0.77609 z m 13.75,-190.89051 7,0.077 31.75,-4.71068 31.75,-4.71069 v -2.83188 -2.83189 l -1.48776,-0.57091 -1.48777,-0.57091 -30.76757,4.6023 -30.76757,4.60229 h -5.63933 -5.63933 l -6.37061,-1.96768 -6.37062,-1.96769 -6.48472,-3.89816 -6.48472,-3.89817 -4.03523,-4.90814 -4.03522,-4.90815 -7.57762,-11.976 -7.57761,-11.97601 -10.30667,-17.94269 -10.30667,-17.94269 -0.77913,-4.05731 -0.77914,-4.05731 1.08156,-6.5 1.08156,-6.5 4.61708,-4.6294 4.61709,-4.6294 5.78869,-1.28839 5.78869,-1.28839 9.71131,1.25772 9.71131,1.25773 27.5,4.41207 27.5,4.41207 16,3.05505 16,3.05505 17.5,4.00014 17.5,4.00013 38.5,9.51526 38.5,9.51525 8.5,1.42375 8.5,1.42375 12,-0.011 12,-0.011 6.26027,-1.47601 6.26027,-1.47601 5.73973,-2.91858 5.73973,-2.91858 7,-5.00258 7,-5.00257 8.12557,-7.33806 8.12558,-7.338 28.87442,-31.466719 28.87443,-31.46671 11.5,-12.02736 11.5,-12.02735 5,-4.33945 5,-4.33945 3.64774,-1.88463 3.64774,-1.88463 7.30471,-2.02424 7.30471,-2.02424 10.93574,-1.09327 10.93575,-1.09327 12.06162,1.16332 12.06163,1.16331 2.71018,1.40149 2.71018,1.40148 2.94857,3.57713 2.94857,3.57712 1.14143,3.80976 1.14143,3.80975 v 39.13398 39.133979 h 3.54088 3.54088 l -0.29088,-42.249999 -0.29088,-42.25 -2.17635,-4 -2.17636,-4 -3.06523,-3.30251 -3.06524,-3.30251 -4.25841,-1.87921 -4.25841,-1.87921 -12.82679,-1.2021998 -12.82678,-1.2022 -11.90294,1.19201 -11.90293,1.1920098 -7.26316,2.01273 -7.26317,2.01272 -6.00711,3.17919 -6.00712,3.17918 -12.03658,12 -12.03657,12 -34.37365,37.31706 -34.37364,37.317049 -9.58978,8.00885 -9.58978,8.00885 -5.76282,3.50429 -5.76283,3.50429 -5.73717,2.06857 -5.73718,2.06857 -11.19149,0.47483 -11.1915,0.47483 -8.24648,-1.20579 -8.24648,-1.2058 -38.06203,-9.35934 -38.06202,-9.35935 -22,-5.02496 -22,-5.02497 -19,-3.45468 -19,-3.45468 -29.64504,-4.57881 -29.64504,-4.57881 h -4.89486 -4.89486 l -5.84428,1.52224 -5.84427,1.52224 -3.87906,3.07227 -3.87906,3.07227 -2.43094,4.15549 -2.43095,4.15549 -1.08961,6.84138 -1.08961,6.84139 1.0445,5.65018 1.04449,5.65018 6.1598,11.00843 6.15981,11.00844 7.46306,12.5 7.46307,12.5 6.45921,9.73446 6.4592,9.73445 5.25633,4.80398 5.25632,4.80398 6.47251,3.18641 6.47251,3.18641 5.42838,1.45934 5.42839,1.45935 z"
       id="path1" />
  </g>
</svg>
